<?xml version="1.0" encoding="utf-8"?>
<!-- Generator: Adobe Illustrator 22.0.1, SVG Export Plug-In . SVG Version: 6.00 Build 0)  -->
<svg version="1.1" id="Layer_1" xmlns="http://www.w3.org/2000/svg" xmlns:xlink="http://www.w3.org/1999/xlink" x="0px" y="0px"
	 viewBox="0 0 241 141.8" style="enable-background:new 0 0 241 141.8;" xml:space="preserve">
<style type="text/css">
	.st0{font-family:'ExpertSans-Regular';}
	.st1{font-size:10px;}
	.st2{fill:none;stroke:#FF0000;stroke-width:0.1;stroke-miterlimit:10;}
	.st3{font-size:6px;}
	.st4{fill:none;stroke:#000000;stroke-width:0.5;stroke-miterlimit:10;}
	.st5{fill:#231F20;}
</style>
<text transform="matrix(1 0 0 1 8.5394 26.9312)" class="st0 st1">Darren O'Brien</text>
<path class="st2" d="M241,129.8c0,6.6-5.4,12-12,12H12.1c-6.6,0-12-5.4-12-12V12c0-6.6,5.4-12,12-12H229c6.6,0,12,5.4,12,12V129.8z"
	/>
<g>
	<text transform="matrix(1 0 0 1 20.1823 63.3531)" class="st0 st3">darren.obrien@barclays.com</text>
	<g>
		<rect x="9.2" y="59.6" class="st4" width="5.7" height="3.8"/>
		<polyline class="st4" points="9.2,59.6 12.1,62.1 14.9,59.6 		"/>
	</g>
</g>
<svg xmlns="http://www.w3.org/2000/svg" version="1.1" x="158.9" y="35.4" width="70.9" height="70.9" stroke="none">
	<rect width="100%" height="100%" fill="#FFFFFF"/>
	<path transform="scale(3.37)" d="M0,0h1v1h-1z M1,0h1v1h-1z M2,0h1v1h-1z M3,0h1v1h-1z M4,0h1v1h-1z M5,0h1v1h-1z M6,0h1v1h-1z M8,0h1v1h-1z M12,0h1v1h-1z M14,0h1v1h-1z M15,0h1v1h-1z M16,0h1v1h-1z M17,0h1v1h-1z M18,0h1v1h-1z M19,0h1v1h-1z M20,0h1v1h-1z M0,1h1v1h-1z M6,1h1v1h-1z M9,1h1v1h-1z M10,1h1v1h-1z M11,1h1v1h-1z M12,1h1v1h-1z M14,1h1v1h-1z M20,1h1v1h-1z M0,2h1v1h-1z M2,2h1v1h-1z M3,2h1v1h-1z M4,2h1v1h-1z M6,2h1v1h-1z M8,2h1v1h-1z M9,2h1v1h-1z M11,2h1v1h-1z M12,2h1v1h-1z M14,2h1v1h-1z M16,2h1v1h-1z M17,2h1v1h-1z M18,2h1v1h-1z M20,2h1v1h-1z M0,3h1v1h-1z M2,3h1v1h-1z M3,3h1v1h-1z M4,3h1v1h-1z M6,3h1v1h-1z M10,3h1v1h-1z M11,3h1v1h-1z M14,3h1v1h-1z M16,3h1v1h-1z M17,3h1v1h-1z M18,3h1v1h-1z M20,3h1v1h-1z M0,4h1v1h-1z M2,4h1v1h-1z M3,4h1v1h-1z M4,4h1v1h-1z M6,4h1v1h-1z M8,4h1v1h-1z M9,4h1v1h-1z M11,4h1v1h-1z M14,4h1v1h-1z M16,4h1v1h-1z M17,4h1v1h-1z M18,4h1v1h-1z M20,4h1v1h-1z M0,5h1v1h-1z M6,5h1v1h-1z M9,5h1v1h-1z M12,5h1v1h-1z M14,5h1v1h-1z M20,5h1v1h-1z M0,6h1v1h-1z M1,6h1v1h-1z M2,6h1v1h-1z M3,6h1v1h-1z M4,6h1v1h-1z M5,6h1v1h-1z M6,6h1v1h-1z M8,6h1v1h-1z M10,6h1v1h-1z M12,6h1v1h-1z M14,6h1v1h-1z M15,6h1v1h-1z M16,6h1v1h-1z M17,6h1v1h-1z M18,6h1v1h-1z M19,6h1v1h-1z M20,6h1v1h-1z M8,7h1v1h-1z M9,7h1v1h-1z M10,7h1v1h-1z M12,7h1v1h-1z M5,8h1v1h-1z M6,8h1v1h-1z M12,8h1v1h-1z M14,8h1v1h-1z M16,8h1v1h-1z M18,8h1v1h-1z M20,8h1v1h-1z M0,9h1v1h-1z M1,9h1v1h-1z M2,9h1v1h-1z M3,9h1v1h-1z M8,9h1v1h-1z M9,9h1v1h-1z M10,9h1v1h-1z M11,9h1v1h-1z M13,9h1v1h-1z M14,9h1v1h-1z M16,9h1v1h-1z M17,9h1v1h-1z M18,9h1v1h-1z M2,10h1v1h-1z M3,10h1v1h-1z M4,10h1v1h-1z M6,10h1v1h-1z M8,10h1v1h-1z M9,10h1v1h-1z M11,10h1v1h-1z M12,10h1v1h-1z M13,10h1v1h-1z M16,10h1v1h-1z M17,10h1v1h-1z M18,10h1v1h-1z M19,10h1v1h-1z M3,11h1v1h-1z M5,11h1v1h-1z M11,11h1v1h-1z M16,11h1v1h-1z M17,11h1v1h-1z M18,11h1v1h-1z M2,12h1v1h-1z M6,12h1v1h-1z M8,12h1v1h-1z M10,12h1v1h-1z M11,12h1v1h-1z M13,12h1v1h-1z M14,12h1v1h-1z M20,12h1v1h-1z M8,13h1v1h-1z M10,13h1v1h-1z M14,13h1v1h-1z M15,13h1v1h-1z M18,13h1v1h-1z M19,13h1v1h-1z M0,14h1v1h-1z M1,14h1v1h-1z M2,14h1v1h-1z M3,14h1v1h-1z M4,14h1v1h-1z M5,14h1v1h-1z M6,14h1v1h-1z M10,14h1v1h-1z M14,14h1v1h-1z M15,14h1v1h-1z M17,14h1v1h-1z M19,14h1v1h-1z M0,15h1v1h-1z M6,15h1v1h-1z M8,15h1v1h-1z M9,15h1v1h-1z M11,15h1v1h-1z M12,15h1v1h-1z M13,15h1v1h-1z M15,15h1v1h-1z M16,15h1v1h-1z M17,15h1v1h-1z M18,15h1v1h-1z M20,15h1v1h-1z M0,16h1v1h-1z M2,16h1v1h-1z M3,16h1v1h-1z M4,16h1v1h-1z M6,16h1v1h-1z M10,16h1v1h-1z M13,16h1v1h-1z M15,16h1v1h-1z M17,16h1v1h-1z M19,16h1v1h-1z M0,17h1v1h-1z M2,17h1v1h-1z M3,17h1v1h-1z M4,17h1v1h-1z M6,17h1v1h-1z M9,17h1v1h-1z M10,17h1v1h-1z M11,17h1v1h-1z M13,17h1v1h-1z M14,17h1v1h-1z M17,17h1v1h-1z M18,17h1v1h-1z M0,18h1v1h-1z M2,18h1v1h-1z M3,18h1v1h-1z M4,18h1v1h-1z M6,18h1v1h-1z M9,18h1v1h-1z M12,18h1v1h-1z M13,18h1v1h-1z M17,18h1v1h-1z M18,18h1v1h-1z M19,18h1v1h-1z M20,18h1v1h-1z M0,19h1v1h-1z M6,19h1v1h-1z M9,19h1v1h-1z M10,19h1v1h-1z M12,19h1v1h-1z M13,19h1v1h-1z M14,19h1v1h-1z M16,19h1v1h-1z M18,19h1v1h-1z M0,20h1v1h-1z M1,20h1v1h-1z M2,20h1v1h-1z M3,20h1v1h-1z M4,20h1v1h-1z M5,20h1v1h-1z M6,20h1v1h-1z M9,20h1v1h-1z M11,20h1v1h-1z M12,20h1v1h-1z M14,20h1v1h-1z M16,20h1v1h-1z M18,20h1v1h-1z M19,20h1v1h-1z" fill="#000000"/>
</svg>

</svg>
