<?xml version="1.0" encoding="utf-8"?>
<!-- Generator: Adobe Illustrator 22.0.1, SVG Export Plug-In . SVG Version: 6.00 Build 0)  -->
<svg version="1.1" id="Layer_1" xmlns="http://www.w3.org/2000/svg" xmlns:xlink="http://www.w3.org/1999/xlink" x="0px" y="0px"
	 viewBox="0 0 241 141.8" style="enable-background:new 0 0 241 141.8;" xml:space="preserve">
<style type="text/css">
	.st0{font-family:'ExpertSans-Regular';}
	.st1{font-size:10px;}
	.st2{fill:none;stroke:#FF0000;stroke-width:0.1;stroke-miterlimit:10;}
	.st3{font-size:6px;}
	.st4{fill:none;stroke:#000000;stroke-width:0.5;stroke-miterlimit:10;}
	.st5{font-family:'ExpertSans-Light';}
</style>
<text transform="matrix(1 0 0 1 21.2874 29.4238)" class="st0 st1">$name</text>
<path class="st2" d="M241,129.8c0,6.6-5.4,12-12,12H12.1c-6.6,0-12-5.4-12-12V12c0-6.6,5.4-12,12-12H229c6.6,0,12,5.4,12,12V129.8z"
	/>
<g>
	<text transform="matrix(1 0 0 1 32.2697 63.3531)" class="st0 st3">$email</text>
	<g>
		<rect x="21.3" y="59.6" class="st4" width="5.7" height="3.8"/>
		<polyline class="st4" points="21.3,59.6 24.2,62.1 27,59.6 		"/>
	</g>
</g>
<text transform="matrix(1 0 0 1 21.3892 39.8766)" class="st5 st3">$role, $company_name</text>
<g>
	<g>
		<path d="M40.5,110.4h-2.2c-0.1,0-0.2-0.1-0.2-0.3c0-0.1,0.1-0.2,0.2-0.2h4.8c0.1,0,0.2,0.1,0.2,0.2s-0.1,0.3-0.2,0.3h-2.2v6.5
			c0,0.1-0.1,0.2-0.2,0.2c-0.1,0-0.2-0.1-0.2-0.2L40.5,110.4z"/>
		<path d="M48.5,113.7h-3.7v3.1c0,0.1-0.1,0.2-0.3,0.2c-0.1,0-0.2-0.1-0.2-0.2v-6.7c0-0.1,0.1-0.2,0.2-0.2c0.1,0,0.3,0.1,0.3,0.2
			v3.1h3.7v-3.1c0-0.1,0.1-0.2,0.2-0.2c0.1,0,0.3,0.1,0.3,0.2v6.7c0,0.1-0.1,0.2-0.3,0.2c-0.1,0-0.2-0.1-0.2-0.2V113.7z"/>
		<path d="M50.4,110.1c0-0.1,0.1-0.2,0.2-0.2l0,0h3.7c0.1,0,0.2,0.1,0.2,0.2s-0.1,0.3-0.2,0.3h-3.5v2.9h3c0.1,0,0.2,0.1,0.2,0.3
			c0,0.1-0.1,0.2-0.2,0.2h-3v2.8h3.5c0.1,0,0.2,0.1,0.2,0.3c0,0.1-0.1,0.2-0.2,0.2h-3.7l0,0l0,0c-0.1,0-0.2-0.1-0.2-0.2V110.1z"/>
	</g>
	<g>
		<path d="M21.6,125.6L21.6,125.6c-0.2,0-0.3-0.1-0.3-0.2v-6.7c0-0.1,0.1-0.2,0.2-0.2s0.3,0.1,0.3,0.2v6.5h3.5
			c0.1,0,0.3,0.1,0.3,0.3c0,0.1-0.1,0.2-0.3,0.2L21.6,125.6z"/>
		<path d="M33.4,119.5v5.9c0,0.1-0.1,0.2-0.2,0.2c-0.1,0-0.2-0.1-0.2-0.2v-6.6c0-0.1,0-0.2,0.1-0.3c0.1-0.1,0.3-0.1,0.4,0.1l4.4,6.1
			v-5.9c0-0.1,0.1-0.2,0.2-0.2c0.1,0,0.3,0.1,0.3,0.2v6.6c0,0.1-0.1,0.2-0.3,0.2c-0.1,0-0.1,0-0.2-0.1l0,0L33.4,119.5z"/>
		<path d="M39.8,125.6L39.8,125.6c-0.2,0-0.3-0.1-0.3-0.2v-6.7c0-0.1,0.1-0.2,0.2-0.2l0,0H41c2,0,3.6,1.6,3.6,3.6s-1.6,3.6-3.6,3.6
			h-1.2V125.6z M41.1,125.1c1.7,0,3.1-1.4,3.1-3.1s-1.4-3.1-3.1-3.1H40v6.2H41.1z"/>
		<path d="M45.8,118.7c0-0.1,0.1-0.2,0.2-0.2c0.1,0,0.3,0.1,0.3,0.2v6.7c0,0.1-0.1,0.2-0.3,0.2c-0.1,0-0.2-0.1-0.2-0.2V118.7z"/>
		<path d="M31.6,118.6L31.6,118.6C31.5,118.6,31.5,118.6,31.6,118.6C31.5,118.6,31.5,118.6,31.6,118.6
			C31.5,118.6,31.5,118.5,31.6,118.6C31.6,118.5,31.6,118.5,31.6,118.6L31.6,118.6L31.6,118.6L31.6,118.6L31.6,118.6L31.6,118.6
			L31.6,118.6L31.6,118.6L31.6,118.6L31.6,118.6L31.6,118.6L31.6,118.6L31.6,118.6L31.6,118.6L31.6,118.6L31.6,118.6L31.6,118.6
			L31.6,118.6l-0.1-0.1l0,0l0,0l-4.7,6.7c-0.1,0.1,0,0.3,0.1,0.4s0.3,0,0.3-0.1l1.2-1.8h3v1.6c0,0.1,0.1,0.2,0.2,0.2
			s0.3-0.1,0.3-0.2v-6.7C31.6,118.6,31.6,118.6,31.6,118.6z M28.4,123.3l2.7-3.8v3.8H28.4z"/>
		<path d="M48.2,119.5v5.9c0,0.1-0.1,0.2-0.2,0.2c-0.1,0-0.2-0.1-0.2-0.2v-6.6c0-0.1,0-0.2,0.1-0.3c0.1-0.1,0.3-0.1,0.4,0.1l4.4,6.1
			v-5.9c0-0.1,0.1-0.2,0.2-0.2c0.1,0,0.3,0.1,0.3,0.2v6.7c0,0.1-0.1,0.2-0.3,0.2c-0.1,0-0.1,0-0.2-0.1l0,0L48.2,119.5z"/>
		<path d="M57.8,122.4c-0.1,0-0.3-0.1-0.3-0.2s0.1-0.3,0.3-0.3H60l0,0c0.1,0,0.2,0.1,0.2,0.3v2.5l0,0c0,0.1,0,0.1-0.1,0.2
			c-0.6,0.5-1.4,0.8-2.3,0.8c-2.1,0-3.8-1.6-3.8-3.7c0-2,1.7-3.6,3.8-3.6c0.9,0,1.7,0.3,2.3,0.8c0.1,0.1,0.1,0.2,0,0.4
			c-0.1,0.1-0.2,0.1-0.4,0c-0.5-0.4-1.2-0.7-2-0.7c-1.8,0-3.2,1.4-3.2,3.1c0,1.8,1.4,3.2,3.2,3.2c0.7,0,1.4-0.2,1.9-0.6v-2.1
			L57.8,122.4z"/>
	</g>
</g>
<g>
	<path class="st4" d="M22.8,81.3c0.4-0.4,0.7-0.6,0-1.4s-1.1-0.2-1.4,0.2c-0.4,0.4,0,1.9,1.5,3.5c1.5,1.5,3,1.9,3.5,1.5
		c0.4-0.4,1-0.8,0.2-1.4c-0.8-0.7-1-0.3-1.4,0c-0.3,0.3-0.9-0.3-1.5-0.8C23.1,82.2,22.6,81.6,22.8,81.3z"/>
	<text transform="matrix(1 0 0 1 32.231 84.1446)" class="st0 st3">$telephone</text>
</g>
$qr
</svg>
